#!OML:ASF E:/inclinewalkrobotboard/Project1/Captureday1/Session1/subject1.ASF
:FULLY-SPECIFIED
:DEGREES
201
root 0 0 0 2.810227406927114 -4.262061957241904 2.1353495852207023
lowerback 11.78916597853246 1.1818719297528495 -0.07595438696977708
upperback -4.217275857638635 1.5207833169689624 -0.7947780261447827
thorax -11.08488775614561 0.6991874155980314 -1.1109962826854758
lowerneck -6.937675386235859 1.2660251411349897 4.2704163687337555
upperneck 19.284233324379066 2.666198634903159 -8.051077350832802
head 7.190802565081538 0.9082961601817524 -3.135170805295732
rclavicle -8.409442378291096E-16 -8.278534489521325E-16
rhumerus 17.067539730453703 12.907311896288268 -51.198996895028515
rradius 68.60936563725812
rwrist 23.988158642063617
rhand -32.90813184216098 -48.95681021410353
rfingers 7.125019999999962
rthumb -6.172002250839244 -79.02944001721144
lclavicle 1.0914190783667062E-15 7.44900400179906E-16
lhumerus 17.269490859682257 -13.00108556476099 49.35796272820089
lradius 66.68267890619784
lwrist -18.483652715442016
lhand -43.859157069608656 -60.589265642853306
lfingers 7.125019999999954
lthumb -16.69799195227443 -31.129727273559514
rfemur -23.214547541181087 1.950054070777012 19.383629286591905
rtibia 34.12191807786939
rfoot -24.831319961160148 -15.18791845152031
rtoes -20.90793550545556
lfemur -19.728218717436533 0.017077705482614502 -14.775950648864516
ltibia 34.529792846650075
lfoot -22.577896812705657 3.0102639962510773
ltoes -20.493565988431236
202
root 0 0 0 2.6609657126019237 -4.238882604984186 2.2388674268827877
lowerback 11.82213465579992 1.1615510820478194 -0.16057408781002835
upperback -4.217103574113154 1.4826460383796891 -0.8106496381911404
thorax -11.111018877454528 0.6831725396055772 -1.0733512903233693
lowerneck -6.895305854296597 1.2699426474836775 4.283413150592532
upperneck 19.458975473758525 2.6746140930590725 -8.10248387565693
head 7.243036140508663 0.9076042895966198 -3.154767233896343
rclavicle -6.88699211876823E-16 -1.000906367751139E-15
rhumerus 16.66043212245752 12.34227239934724 -50.83724629654259
rradius 68.2811362217571
rwrist 24.38866772567261
rhand -32.900838641782265 -49.020085629729294
rfingers 7.125019999999962
rthumb -6.163991296436304 -79.11911538490574
lclavicle 1.0410239358955421E-15 4.845563053137934E-16
lhumerus 17.144937551456593 -12.692984328136953 49.23916749101742
lradius 66.50297724723809
lwrist -18.672792549839205
lhand -43.86780821655546 -60.89400496221631
lfingers 7.125019999999954
lthumb -16.707420315583903 -31.434860891558973
rfemur -24.764016085858565 0.720489380017145 17.83493430398552
rtibia 42.37533169066678
rfoot -20.095123099945532 -14.401000411872328
rtoes -19.13746536711262
lfemur -18.70426739166933 0.6606649987657452 -14.438176658179376
ltibia 40.80493521840499
lfoot -19.106026213348237 0.03143851924923702
ltoes -20.956309502173816
203
root 0 0 0 2.3835478939208947 -4.1789455146701995 2.4221622413001813
lowerback 11.918426842900987 1.1160185637415085 -0.3202222212096346
upperback -4.196653246084976 1.4023687571539505 -0.8286101553104442
thorax -11.161016597150898 0.6491260432035802 -0.9895139622410354
lowerneck -6.869369556884637 1.297806872256629 4.2983576554338585
upperneck 19.571549331430592 2.717456207641481 -8.16116227787748
head 7.276761208468037 0.9220661045403163 -3.1736550105022205
rclavicle -4.725204352243542E-16 -1.3333327024322554E-15
rhumerus 16.25240086267518 11.76094013435524 -50.44840785774403
rradius 67.95110971381644
rwrist 24.818101930061417
rhand -32.8991677718498 -49.118166364198295
rfingers 7.125019999999963
rthumb -6.16165219769441 -79.23887018092016
lclavicle 9.500631224887656E-16 1.4523684060664848E-16
lhumerus 17.132709241586547 -12.49948463023223 49.11758793150571
lradius 66.43292328456488
lwrist -18.83169635258721
lhand -43.90019366717768 -61.216378994028716
lfingers 7.125019999999955
lthumb -16.740295211420825 -31.75994964338315
rfemur -28.10673607620707 -0.9362504558525693 15.871415948313562
rtibia 53.03919593471031
rfoot -14.279333091555564 -13.578320458433911
rtoes -15.623155209013014
lfemur -17.927918282427292 1.985479119834733 -14.207502016311883
ltibia 51.655234660661655
lfoot -14.707167369694298 -4.156589989171278
ltoes -20.753544559693317
204
root 0 0 0 2.03947215649076 -4.054521668768343 2.6302031802359704
lowerback 12.066477703119027 1.0320267399239527 -0.5205802750050418
upperback -4.150162016083411 1.2676836784345957 -0.826168552438762
thorax -11.219139522784806 0.5900579541807025 -0.8531194495620615
lowerneck -6.905254554277371 1.3415785838340148 4.310013144319542
upperneck 19.604507789905323 2.783928549498654 -8.216802060731714
head 7.2933265230138185 0.9472025745375182 -3.189130724961035
rclavicle -4.836404472458237E-16 -1.6990659992685443E-15
rhumerus 15.978986081261992 11.354865792031847 -50.155501576462484
rradius 67.73127619154786
rwrist 25.13769097810008
rhand -32.90558298783884 -49.21862694253234
rfingers 7.125019999999963
rthumb -6.167522143214251 -79.35899730414471
lclavicle 7.12364628834401E-16 -1.7456072475455055E-16
lhumerus 17.22642070271261 -12.472984397329952 49.029933722134004
lradius 66.48535276985437
lwrist -18.90981933829282
lhand -43.95051126420553 -61.47142929634107
lfingers 7.125019999999955
lthumb -16.789791443018274 -32.01905127507142
rfemur -31.26124385154886 -1.985019949030896 14.897903056681123
rtibia 59.57344960765047
rfoot -10.680264460394334 -12.948428952714366
rtoes -11.886827888160376
lfemur -17.794142678921656 3.497531655601322 -14.451961678380034
ltibia 61.89906529863315
lfoot -10.315242227878391 -7.812588724852188
ltoes -18.49298673159189
